<?xml version="1.0" standalone="no"?>
<!DOCTYPE svg PUBLIC "-//W3C//DTD SVG 20010904//EN"
 "http://www.w3.org/TR/2001/REC-SVG-20010904/DTD/svg10.dtd">
<svg version="1.0" xmlns="http://www.w3.org/2000/svg"
 width="99.000000pt" height="90.000000pt" viewBox="0 0 99.000000 90.000000"
 preserveAspectRatio="xMidYMid meet">

<g transform="translate(0.000000,90.000000) scale(0.100000,-0.100000)"
fill="#000000" stroke="none">
<path d="M370 790 c12 -23 7 -93 -9 -119 -7 -11 -13 -3 -22 29 l-13 42 -23
-26 c-34 -40 -46 -97 -34 -159 7 -32 8 -72 3 -103 -22 -137 66 -249 205 -261
50 -4 66 0 113 24 36 18 65 43 85 71 28 41 30 51 31 135 0 51 4 113 8 139 6
38 3 55 -14 89 -13 25 -20 54 -18 70 5 36 -4 37 -30 4 l-19 -24 -26 29 c-28
31 -85 65 -94 56 -3 -3 0 -19 6 -37 6 -18 11 -36 11 -40 0 -18 -17 -8 -28 16
-13 28 -74 71 -116 81 -27 6 -28 6 -16 -16z m122 -106 c13 -24 26 -44 29 -44
11 0 29 51 29 82 0 31 0 31 21 12 27 -24 49 -67 49 -94 0 -32 18 -24 25 12 l7
32 18 -34 c24 -47 17 -266 -11 -321 -31 -61 -105 -109 -169 -109 -34 0 -91 22
-120 47 -53 44 -72 94 -69 182 2 42 -1 99 -5 126 -5 32 -3 61 4 80 12 29 12
30 21 7 5 -12 20 -27 35 -32 28 -11 48 -5 38 11 -3 6 0 37 7 69 l13 58 27 -20
c15 -12 38 -40 51 -64z"/>
<path d="M566 495 c-20 -14 -44 -25 -53 -25 -24 0 -4 -16 28 -24 29 -6 52 13
62 52 6 27 8 27 -37 -3z m14 -25 c0 -5 -5 -10 -11 -10 -5 0 -7 5 -4 10 3 6 8
10 11 10 2 0 4 -4 4 -10z"/>
<path d="M375 492 c6 -4 15 -16 21 -27 12 -21 45 -31 71 -21 20 8 -48 56 -80
56 -12 0 -17 -4 -12 -8z"/>
<path d="M321 405 c19 -100 68 -147 158 -153 94 -6 151 38 176 135 7 26 11 50
9 52 -1 1 -18 -8 -36 -22 -88 -65 -192 -63 -274 6 -18 15 -34 27 -37 27 -2 0
-1 -20 4 -45z m309 -39 c-6 -17 -14 -24 -22 -20 -6 4 -8 3 -5 -4 10 -15 -3
-42 -20 -42 -9 0 -21 -7 -28 -17 -16 -22 -109 -22 -134 1 -10 9 -23 16 -29 16
-6 0 -16 9 -22 20 -6 11 -8 20 -5 20 4 0 -1 7 -9 16 -21 21 -20 36 2 32 9 -2
16 -9 15 -16 -2 -6 5 -11 15 -10 39 3 54 -2 48 -17 -5 -13 -2 -14 15 -4 12 6
35 9 52 6 19 -2 37 1 45 10 8 8 20 12 26 10 7 -3 23 3 36 13 30 23 33 20 20
-14z"/>
<path d="M460 315 c0 -5 5 -17 10 -25 5 -8 10 -10 10 -5 0 6 -5 17 -10 25 -5
8 -10 11 -10 5z"/>
<path d="M288 156 c-8 -7 -14 -26 -13 -42 0 -27 3 -29 46 -32 35 -2 48 1 52
13 4 8 2 15 -3 15 -6 0 -10 -4 -10 -10 0 -5 -4 -10 -10 -10 -15 0 -12 46 5 60
18 15 38 3 32 -20 -8 -31 11 -50 53 -50 35 0 39 3 43 28 l4 27 2 -27 c1 -21 6
-28 21 -28 11 0 20 7 20 15 0 8 5 15 10 15 6 0 10 -7 10 -15 0 -12 16 -15 84
-15 l84 0 0 46 c0 45 0 46 -26 40 -15 -4 -31 -6 -37 -6 -66 7 -294 6 -307 -1
-10 -6 -19 -5 -23 1 -9 14 -21 13 -37 -4z m32 -6 c0 -5 -5 -10 -12 -10 -6 0
-4 -6 7 -13 21 -16 12 -37 -16 -37 -11 0 -17 5 -14 10 4 6 12 7 18 3 7 -3 4 2
-5 13 -14 16 -15 23 -6 32 15 15 28 16 28 2z m110 -25 c0 -25 -4 -35 -16 -35
-11 0 -14 8 -10 33 5 40 4 37 16 37 6 0 10 -16 10 -35z m60 25 c0 -5 -4 -10
-10 -10 -5 0 -10 -11 -10 -25 0 -14 -4 -25 -10 -25 -5 0 -10 9 -10 19 0 11 -3
26 -6 35 -5 12 0 16 20 16 14 0 26 -4 26 -10z m60 0 c0 -5 -8 -10 -17 -11 -10
0 -13 -3 -6 -6 10 -3 10 -9 0 -24 -6 -10 -15 -19 -19 -19 -13 0 -9 58 5 63 21
9 37 7 37 -3z m30 -25 c0 -19 -4 -35 -10 -35 -5 0 -10 16 -10 35 0 19 5 35 10
35 6 0 10 -16 10 -35z m57 23 c5 -7 10 -23 11 -34 0 -16 -5 -21 -24 -21 -19 0
-24 5 -24 27 0 39 18 53 37 28z m73 2 c0 -5 -8 -10 -17 -11 -11 0 -13 -3 -5
-6 6 -2 9 -9 6 -15 -4 -6 0 -14 7 -19 10 -6 6 -9 -13 -9 -24 0 -28 4 -28 29 0
16 6 32 13 34 21 9 37 7 37 -3z"/>
</g>
</svg>
