<?xml version="1.0" standalone="no"?>
<!DOCTYPE svg PUBLIC "-//W3C//DTD SVG 20010904//EN"
 "http://www.w3.org/TR/2001/REC-SVG-20010904/DTD/svg10.dtd">
<svg version="1.0" xmlns="http://www.w3.org/2000/svg"
 width="100.000000pt" height="69.000000pt" viewBox="0 0 100.000000 69.000000"
 preserveAspectRatio="xMidYMid meet">

<g transform="translate(0.000000,69.000000) scale(0.100000,-0.100000)"
fill="#000000" stroke="none">
<path d="M0 345 l0 -345 500 0 500 0 0 345 0 345 -500 0 -500 0 0 -345z m267
289 l81 -7 14 -66 13 -66 5 70 c5 66 6 70 29 70 23 0 24 -3 25 -65 1 -64 1
-64 34 -71 l32 -6 0 73 c0 72 1 74 25 74 24 0 25 -2 25 -69 l0 -69 35 -4 c21
-2 34 0 34 7 -1 5 -1 36 0 68 l1 57 88 0 88 0 19 -37 20 -38 3 38 c3 32 7 37
28 37 25 0 25 -1 22 -82 l-3 -83 -31 -3 c-28 -3 -33 1 -50 40 l-19 43 -3 -42
-3 -43 -223 0 -224 0 -6 25 c-8 33 -43 34 -51 2 -4 -15 -14 -23 -31 -25 -28
-2 -29 4 -9 78 8 30 15 56 15 58 0 1 -16 2 -35 2 -24 0 -35 -5 -35 -15 0 -8 9
-15 20 -15 13 0 20 -7 20 -20 0 -13 -7 -20 -20 -20 -18 0 -26 -20 -21 -52 1
-10 -37 -20 -49 -13 -11 7 -14 158 -3 168 8 9 35 9 140 1z m221 -256 c2 -34 7
-48 18 -48 10 0 14 13 14 50 l0 50 145 0 c80 0 145 -3 145 -7 0 -4 -10 -17
-22 -30 -19 -20 -31 -23 -105 -23 -76 0 -83 -2 -83 -20 0 -17 7 -20 50 -20 37
0 50 -4 50 -14 0 -21 -48 -56 -76 -56 -23 0 -24 -3 -24 -73 0 -70 -2 -75 -33
-105 -18 -18 -36 -29 -40 -26 -4 4 -7 52 -7 106 0 80 -3 98 -15 98 -12 0 -15
-18 -15 -99 0 -55 -3 -102 -8 -105 -4 -2 -22 9 -40 25 -31 28 -32 32 -32 104
l0 75 -28 0 c-29 0 -89 50 -75 63 3 4 28 7 55 7 41 0 48 3 48 20 0 18 -7 20
-83 20 -80 0 -85 1 -112 30 l-29 31 149 -3 150 -3 3 -47z"/>
<path d="M670 585 c0 -9 9 -15 25 -15 18 0 25 -5 25 -20 0 -15 -7 -20 -26 -20
-33 0 -27 -21 9 -31 27 -7 27 -7 27 47 0 53 0 54 -30 54 -20 0 -30 -5 -30 -15z"/>
<path d="M290 566 c0 -9 5 -16 10 -16 6 0 10 4 10 9 0 6 -4 13 -10 16 -5 3
-10 -1 -10 -9z"/>
</g>
</svg>
