<?xml version="1.0" standalone="no"?>
<!DOCTYPE svg PUBLIC "-//W3C//DTD SVG 20010904//EN"
 "http://www.w3.org/TR/2001/REC-SVG-20010904/DTD/svg10.dtd">
<svg version="1.0" xmlns="http://www.w3.org/2000/svg"
 width="90.000000pt" height="90.000000pt" viewBox="0 0 90.000000 90.000000"
 preserveAspectRatio="xMidYMid meet">

<g transform="translate(0.000000,90.000000) scale(0.100000,-0.100000)"
fill="#000000" stroke="none">
<path d="M350 774 c-123 -45 -206 -147 -225 -275 -8 -53 9 -147 30 -175 11
-14 11 -9 -2 21 -25 59 -23 177 4 237 30 66 95 133 162 165 47 24 69 28 136
28 67 0 89 -4 137 -28 62 -30 115 -83 150 -149 30 -57 33 -204 5 -255 -10 -18
-13 -33 -8 -33 6 0 18 26 27 57 45 155 -25 316 -171 391 -64 33 -178 40 -245
16z"/>
<path d="M358 735 c-20 -7 -48 -21 -63 -31 l-26 -17 25 -21 c27 -23 66 -84 66
-104 0 -16 -21 -6 -84 43 -25 19 -49 35 -52 35 -3 0 -17 -26 -32 -57 -38 -81
-37 -176 2 -251 l27 -53 40 36 c43 39 85 62 95 52 8 -8 -28 -66 -60 -96 -14
-14 -26 -28 -26 -33 0 -5 26 -21 58 -36 76 -36 174 -37 245 -3 26 13 50 27 53
32 3 5 -8 25 -25 44 -34 39 -66 95 -54 95 13 0 77 -41 105 -67 l27 -26 20 34
c34 56 44 98 39 174 -6 92 -54 187 -71 142 -6 -17 -96 -77 -114 -77 -19 0 7
49 53 100 l35 38 -62 31 c-50 25 -74 31 -123 30 -34 0 -77 -6 -98 -14z m192
-40 l29 -15 -34 -50 c-32 -47 -54 -114 -43 -126 9 -9 102 28 136 53 18 14 35
23 38 20 7 -6 -77 -67 -93 -67 -7 0 -13 -7 -13 -16 0 -13 -3 -14 -14 -5 -9 7
-22 8 -37 3 -40 -14 -158 -3 -182 17 -18 14 -27 -4 -27 -54 0 -38 12 -51 28
-32 6 7 24 12 39 11 15 -1 33 2 39 7 6 5 25 4 42 -1 23 -6 32 -5 33 3 0 9 2 8
6 0 2 -7 16 -13 29 -13 14 0 36 -7 49 -16 13 -9 29 -13 35 -9 5 3 10 -2 10
-11 0 -14 3 -15 12 -6 7 7 13 38 13 72 0 33 3 60 7 60 12 0 10 -108 -2 -130
-7 -13 -7 -21 0 -25 17 -10 31 46 29 110 -2 66 10 87 23 40 13 -45 -2 -142
-27 -173 -1 -1 -28 13 -59 32 -54 32 -112 53 -121 44 -9 -9 16 -76 45 -121 16
-26 30 -50 30 -53 0 -13 -74 -34 -120 -34 -45 0 -120 21 -120 33 0 3 15 28 34
56 33 49 54 107 42 118 -11 11 -97 -20 -137 -49 l-40 -29 -14 35 c-20 46 -19
126 1 176 l16 40 42 -28 c36 -25 116 -62 133 -62 16 0 -9 86 -37 131 -18 27
-31 51 -29 53 36 29 161 36 209 11z m60 -216 c0 -5 -4 -9 -10 -9 -5 0 -10 7
-10 16 0 8 5 12 10 9 6 -3 10 -10 10 -16z m-63 -21 c-3 -8 -6 -5 -6 6 -1 11 2
17 5 13 3 -3 4 -12 1 -19z m53 -24 c0 -8 -5 -12 -10 -9 -6 4 -8 11 -5 16 9 14
15 11 15 -7z"/>
<path d="M388 684 c-22 -7 -23 -3 6 -55 13 -24 29 -63 36 -86 13 -51 36 -56
45 -10 4 17 20 56 36 86 16 30 27 57 24 60 -8 7 -126 11 -147 5z"/>
<path d="M229 533 c-11 -28 -8 -147 3 -159 16 -16 26 8 16 37 -10 29 -6 96 8
132 3 10 1 17 -5 17 -6 0 -16 -12 -22 -27z"/>
<path d="M268 534 c-12 -19 -20 -84 -13 -113 7 -33 25 -43 25 -13 0 14 2 15
10 2 11 -17 11 -18 12 55 0 31 -2 59 -6 62 -3 4 -6 0 -7 -8 0 -8 -3 -6 -8 5
-4 11 -10 15 -13 10z"/>
<path d="M426 377 c-9 -29 -27 -70 -41 -91 -23 -33 -23 -37 -7 -44 24 -9 139
-9 148 1 5 5 0 23 -10 40 -10 18 -27 57 -36 87 -10 30 -22 56 -28 58 -6 2 -17
-21 -26 -51z"/>
<path d="M183 275 c-11 -24 -10 -25 15 -18 26 6 26 5 10 -13 -14 -16 -14 -21
-2 -32 8 -7 19 -10 26 -6 8 5 9 2 5 -9 -6 -17 24 -42 37 -30 3 3 6 1 6 -6 0
-11 16 -19 69 -36 17 -5 22 -4 16 5 -4 7 -2 16 5 20 8 5 5 9 -10 13 -13 3 -23
0 -27 -9 -4 -12 -8 -12 -20 -2 -13 10 -13 13 4 19 16 6 15 8 -7 17 -15 6 -29
6 -35 1 -15 -15 -27 -10 -17 8 7 12 3 23 -14 43 -14 15 -30 34 -37 43 -11 15
-13 14 -24 -8z"/>
<path d="M700 282 c0 -4 -11 -19 -25 -34 -17 -18 -23 -33 -18 -45 6 -15 4 -16
-9 -6 -12 11 -21 10 -47 -3 -32 -16 -37 -29 -22 -53 7 -10 12 -8 24 9 9 12 16
17 19 10 2 -7 23 6 48 29 25 23 39 41 32 41 -6 0 -12 5 -12 11 0 6 9 9 19 6
12 -3 22 1 25 10 3 8 1 11 -4 8 -6 -3 -10 1 -10 9 0 9 -4 16 -10 16 -5 0 -10
-3 -10 -8z"/>
<path d="M528 163 c-11 -3 -18 -14 -18 -28 0 -22 3 -23 24 -15 13 5 27 6 30 3
3 -4 6 -1 6 5 0 17 -11 42 -19 41 -3 -1 -14 -3 -23 -6z"/>
<path d="M405 140 c-9 -14 3 -30 23 -30 15 0 15 2 2 10 -13 9 -13 11 0 20 13
8 13 10 -2 10 -9 0 -20 -4 -23 -10z"/>
<path d="M450 130 c0 -15 7 -20 25 -20 18 0 25 5 25 20 0 15 -7 20 -25 20 -18
0 -25 -5 -25 -20z m40 0 c0 -5 -4 -10 -10 -10 -5 0 -10 5 -10 10 0 6 5 10 10
10 6 0 10 -4 10 -10z"/>
</g>
</svg>
