<?xml version="1.0" standalone="no"?>
<!DOCTYPE svg PUBLIC "-//W3C//DTD SVG 20010904//EN"
 "http://www.w3.org/TR/2001/REC-SVG-20010904/DTD/svg10.dtd">
<svg version="1.0" xmlns="http://www.w3.org/2000/svg"
 width="90.000000pt" height="90.000000pt" viewBox="0 0 90.000000 90.000000"
 preserveAspectRatio="xMidYMid meet">

<g transform="translate(0.000000,90.000000) scale(0.100000,-0.100000)"
fill="#000000" stroke="none">
<path d="M345 847 c-168 -56 -280 -194 -292 -362 -4 -44 -12 -90 -20 -104 -12
-24 -11 -28 11 -46 13 -11 33 -40 45 -65 12 -25 42 -70 67 -101 37 -46 61 -64
127 -95 78 -37 87 -39 182 -39 92 0 106 3 167 32 157 74 248 215 248 383 0 86
-20 152 -70 229 -22 34 -40 70 -40 80 0 24 -25 45 -45 38 -8 -4 -45 8 -82 26
-59 27 -80 32 -163 34 -59 2 -110 -2 -135 -10z m395 -80 c0 -13 3 -57 6 -98
l7 -74 -73 -23 c-39 -13 -73 -22 -75 -20 -7 6 116 238 125 238 6 0 10 -11 10
-23z m-80 -18 c0 -5 -13 -15 -29 -20 -31 -11 -38 -31 -57 -149 -6 -36 -19 -58
-29 -48 -2 2 3 32 10 68 8 36 14 75 15 87 0 20 -3 21 -25 13 -15 -6 -25 -6
-25 0 0 12 16 22 70 42 54 20 70 22 70 7z m-150 -48 c0 -9 -24 -129 -35 -178
-10 -42 -33 -25 -50 35 -19 63 -27 57 -40 -31 -4 -26 -12 -50 -19 -55 -15 -12
-168 -63 -174 -58 -7 7 113 230 126 234 9 3 12 -15 13 -65 2 -120 12 -127 33
-20 29 144 40 150 71 42 l18 -60 14 70 c8 39 16 76 18 83 5 14 25 17 25 3z
m-240 -81 c0 -6 -20 -19 -44 -30 -42 -18 -45 -21 -56 -77 -22 -110 -27 -120
-76 -139 -24 -9 -47 -14 -50 -11 -11 10 6 25 35 32 41 9 48 20 62 100 15 91
21 100 71 118 53 19 58 20 58 7z m480 -121 c0 -6 -17 -41 -39 -77 -67 -116
-66 -115 -39 -107 12 4 29 10 36 12 28 11 9 -19 -20 -31 -95 -39 -97 -34 -28
84 27 46 47 86 45 88 -2 3 -18 0 -34 -6 -31 -11 -41 -3 -18 15 14 12 66 31 85
32 6 1 12 -4 12 -10z m-130 -41 c-1 -31 -39 -190 -46 -198 -15 -13 -103 -39
-108 -32 -7 11 33 195 44 206 18 18 18 1 1 -87 -17 -81 -17 -87 -2 -87 35 0
53 26 67 95 22 108 24 115 34 115 6 0 10 -6 10 -12z m-160 -58 c0 -23 -23
-116 -32 -127 -6 -7 -5 -19 2 -33 9 -16 9 -25 1 -33 -6 -6 -11 -7 -11 -1 0 5
-7 17 -14 27 -22 29 -64 13 -72 -28 -3 -19 -12 -36 -20 -39 -14 -6 -15 -8 15
134 l16 74 45 18 c52 20 70 22 70 8z m-140 -40 c0 -5 -17 -18 -37 -27 -33 -16
-39 -25 -49 -68 -7 -28 -13 -62 -13 -77 -1 -25 1 -27 25 -18 33 13 34 13 34
-3 0 -14 -78 -43 -88 -33 -3 4 3 49 12 102 l18 96 42 18 c49 22 56 23 56 10z"/>
<path d="M680 660 c-17 -34 -29 -64 -27 -67 3 -2 20 2 38 10 32 13 33 15 30
63 -1 27 -4 51 -6 53 -2 1 -18 -25 -35 -59z"/>
<path d="M269 519 c-16 -34 -28 -63 -26 -65 2 -2 18 1 35 7 31 10 32 13 32 65
0 30 -2 54 -5 54 -3 0 -19 -27 -36 -61z"/>
<path d="M388 368 c-16 -5 -28 -15 -28 -23 0 -7 -3 -27 -7 -45 -6 -32 -5 -33
23 -26 38 10 41 13 49 64 7 45 5 46 -37 30z"/>
</g>
</svg>
