<?xml version="1.0" standalone="no"?>
<!DOCTYPE svg PUBLIC "-//W3C//DTD SVG 20010904//EN"
 "http://www.w3.org/TR/2001/REC-SVG-20010904/DTD/svg10.dtd">
<svg version="1.0" xmlns="http://www.w3.org/2000/svg"
 width="90.000000pt" height="90.000000pt" viewBox="0 0 90.000000 90.000000"
 preserveAspectRatio="xMidYMid meet">

<g transform="translate(0.000000,90.000000) scale(0.100000,-0.100000)"
fill="#000000" stroke="none">
<path d="M432 753 c-12 -50 -20 -98 -16 -106 8 -22 32 -29 55 -17 24 13 24 49
0 145 l-17 70 -22 -92z"/>
<path d="M202 792 c-99 -92 -110 -234 -22 -286 16 -9 32 -16 38 -16 18 0 0 48
-24 60 -23 13 -52 75 -40 87 3 4 6 -2 6 -11 0 -10 14 -32 31 -49 l31 -31 12
23 c11 20 9 26 -17 52 -26 26 -29 35 -24 71 3 22 17 62 31 89 14 27 24 49 22
49 -1 0 -21 -17 -44 -38z"/>
<path d="M662 813 c61 -70 67 -180 13 -210 -15 -9 -15 -13 -4 -31 16 -25 41
-15 63 26 14 25 15 25 16 5 0 -14 -14 -33 -35 -50 -35 -28 -47 -63 -21 -63 21
0 65 39 82 73 19 35 14 109 -9 154 -17 32 -96 113 -111 113 -5 0 -2 -8 6 -17z"/>
<path d="M346 640 c-42 -38 -63 -97 -72 -205 l-6 -80 83 -78 c45 -42 85 -75
87 -72 2 2 1 42 -3 88 l-7 84 -41 19 c-34 16 -43 26 -54 62 -6 23 -10 42 -7
42 3 0 22 -9 44 -20 50 -25 52 -25 44 4 -8 34 12 66 41 66 30 0 48 -30 39 -65
-7 -30 1 -31 44 -5 46 28 51 25 38 -21 -9 -35 -18 -45 -53 -62 -24 -12 -43
-28 -44 -36 0 -9 -4 -49 -8 -89 -4 -39 -4 -72 -1 -72 3 0 43 37 88 83 l82 83
-9 91 c-10 100 -34 158 -77 192 -33 26 -37 26 -49 -1 -14 -30 -37 -42 -68 -34
-17 4 -29 15 -33 31 -8 32 -16 31 -58 -5z"/>
<path d="M268 590 c-33 -25 -42 -63 -27 -108 11 -32 13 -34 20 -17 11 29 11
47 -1 40 -13 -8 -13 35 0 55 9 13 10 13 10 0 1 -8 8 -2 16 13 20 37 14 42 -18
17z"/>
<path d="M613 595 c4 -9 7 -21 7 -26 0 -4 6 -6 14 -3 8 3 16 -4 20 -18 9 -34
7 -50 -4 -43 -6 4 -10 -7 -10 -26 0 -27 2 -30 15 -19 17 14 20 82 5 110 -6 11
-20 25 -32 31 -18 10 -20 9 -15 -6z"/>
<path d="M344 465 c3 -9 6 -21 6 -26 0 -13 76 -49 104 -49 36 0 95 30 102 53
9 29 0 30 -45 8 -52 -27 -68 -26 -126 4 -37 20 -46 22 -41 10z"/>
<path d="M130 100 c0 -43 3 -50 19 -50 23 0 51 25 51 46 0 29 -21 54 -45 54
-23 0 -25 -4 -25 -50z m40 -1 c0 -17 -4 -28 -10 -24 -5 3 -10 17 -10 31 0 13
5 24 10 24 6 0 10 -14 10 -31z"/>
<path d="M236 142 c-12 -19 -18 -92 -8 -92 6 0 13 6 15 13 4 9 8 8 16 -3 17
-24 24 -3 15 41 -9 41 -26 60 -38 41z"/>
<path d="M310 101 c0 -49 19 -75 21 -28 l0 22 9 -22 c15 -37 26 -26 25 25 0
44 -2 47 -27 50 -27 3 -28 2 -28 -47z m40 19 c0 -5 -4 -10 -10 -10 -5 0 -10 5
-10 10 0 6 5 10 10 10 6 0 10 -4 10 -10z"/>
<path d="M400 100 c0 -48 19 -74 21 -27 l0 22 9 -22 c10 -24 30 -31 29 -10 0
6 -4 21 -8 32 -5 11 -4 28 1 38 10 19 -2 23 -20 5 -9 -9 -12 -9 -12 0 0 7 -4
12 -10 12 -5 0 -10 -22 -10 -50z"/>
<path d="M489 134 c-12 -14 -10 -19 9 -34 25 -21 29 -35 7 -26 -8 3 -15 1 -15
-4 0 -14 17 -21 34 -14 20 8 21 43 1 50 -15 6 -22 26 -7 22 4 -2 8 2 10 7 5
17 -24 17 -39 -1z"/>
<path d="M560 140 c0 -5 5 -10 10 -10 6 0 10 -18 10 -40 0 -22 5 -40 10 -40 6
0 10 18 10 40 0 22 5 40 10 40 6 0 10 5 10 10 0 6 -13 10 -30 10 -16 0 -30 -4
-30 -10z"/>
<path d="M643 103 c-13 -54 -10 -62 13 -43 13 12 17 11 24 0 16 -26 21 -3 9
44 -6 25 -17 46 -24 46 -6 0 -17 -21 -22 -47z"/>
<path d="M720 106 c0 -49 13 -66 29 -39 10 17 10 17 11 1 0 -10 6 -18 13 -18
13 0 17 67 4 88 -5 6 -19 12 -33 12 -22 0 -24 -4 -24 -44z"/>
</g>
</svg>
