<?xml version="1.0" standalone="no"?>
<!DOCTYPE svg PUBLIC "-//W3C//DTD SVG 20010904//EN"
 "http://www.w3.org/TR/2001/REC-SVG-20010904/DTD/svg10.dtd">
<svg version="1.0" xmlns="http://www.w3.org/2000/svg"
 width="90.000000pt" height="90.000000pt" viewBox="0 0 90.000000 90.000000"
 preserveAspectRatio="xMidYMid meet">

<g transform="translate(0.000000,90.000000) scale(0.100000,-0.100000)"
fill="#000000" stroke="none">
<path d="M845 831 c-3 -6 -1 -19 4 -28 6 -10 11 -13 11 -7 0 7 7 15 16 18 12
5 15 2 10 -11 -6 -14 -4 -15 5 -6 7 7 9 19 4 30 -5 13 -9 14 -12 5 -4 -9 -8
-10 -18 -2 -9 8 -15 8 -20 1z"/>
<path d="M40 591 c0 -138 3 -181 13 -182 12 -1 105 -1 120 0 4 1 7 51 7 111
l0 110 48 0 c26 0 57 -3 69 -6 l21 -6 -26 -51 c-20 -37 -28 -69 -30 -121 -3
-63 0 -78 27 -131 16 -32 28 -61 25 -64 -3 -3 -34 -7 -69 -9 l-65 -4 0 46 0
46 -70 0 -70 0 0 -110 0 -110 121 0 c103 0 132 4 196 26 l76 25 48 -21 c60
-25 181 -42 274 -38 l70 3 0 110 0 110 -70 0 -70 0 -3 -44 -3 -44 -60 6 c-34
3 -63 7 -65 10 -2 2 8 31 23 63 43 93 36 195 -19 275 -18 26 -18 27 5 32 12 3
43 9 70 12 l47 7 0 -36 0 -36 76 0 75 0 -3 98 -3 97 -80 3 c-96 4 -204 -12
-263 -38 l-45 -20 -66 26 c-57 23 -85 28 -198 32 l-133 5 0 -182z m420 -162
c0 -53 -23 -94 -40 -69 -20 31 -22 95 -5 136 l17 39 14 -30 c7 -16 13 -51 14
-76z"/>
<path d="M746 512 c-6 -19 -13 -22 -32 -18 -26 7 -31 -3 -11 -23 10 -10 7 -16
-13 -31 l-25 -20 29 0 c25 0 28 -3 24 -25 -6 -28 3 -32 22 -10 12 14 15 14 31
-1 18 -16 19 -16 19 9 0 23 4 27 28 27 l27 0 -24 19 c-20 15 -22 21 -12 40 11
20 10 21 -12 16 -18 -5 -26 -1 -34 17 l-10 23 -7 -23z"/>
</g>
</svg>
