<?xml version="1.0" standalone="no"?>
<!DOCTYPE svg PUBLIC "-//W3C//DTD SVG 20010904//EN"
 "http://www.w3.org/TR/2001/REC-SVG-20010904/DTD/svg10.dtd">
<svg version="1.0" xmlns="http://www.w3.org/2000/svg"
 width="90.000000pt" height="90.000000pt" viewBox="0 0 90.000000 90.000000"
 preserveAspectRatio="xMidYMid meet">

<g transform="translate(0.000000,90.000000) scale(0.100000,-0.100000)"
fill="#000000" stroke="none">
<path d="M180 871 c-6 -13 -10 -164 -10 -424 0 -379 1 -405 18 -420 16 -15 50
-17 270 -17 238 0 252 1 262 19 15 30 14 833 -2 849 -9 9 -83 12 -270 12 -244
0 -258 -1 -268 -19z m508 -410 c1 -275 -1 -388 -9 -397 -9 -11 -57 -14 -230
-14 -206 0 -219 1 -229 19 -11 21 -15 737 -4 765 6 15 33 16 238 14 l231 -3 3
-384z"/>
<path d="M400 800 c-11 -11 -20 -33 -20 -50 0 -65 79 -94 119 -44 27 35 26 59
-4 89 -29 30 -68 32 -95 5z"/>
<path d="M353 645 c-24 -17 -89 -207 -78 -225 3 -6 15 -10 25 -10 15 0 23 13
36 58 9 31 20 61 25 67 17 17 9 -72 -11 -137 -25 -79 -25 -88 0 -88 19 0 20
-7 20 -110 l0 -110 35 0 35 0 0 110 c0 67 4 110 10 110 6 0 10 -43 10 -110 l0
-110 35 0 35 0 0 110 c0 103 1 110 20 110 25 0 25 3 -5 97 -18 58 -22 86 -16
108 8 28 9 26 30 -42 18 -62 24 -70 41 -66 11 3 22 8 24 12 10 15 -55 207 -75
224 -28 23 -164 24 -196 2z"/>
</g>
</svg>
